<svg width="75" height="27" viewBox="0 0 75 27" fill="none" xmlns="http://www.w3.org/2000/svg">
<path d="M30.854 10.0105H35.7904V12.1507H30.854V10.0105Z" fill="#302009"/>
<path d="M72.9899 6.81077L64.6066 5.7726C63.0779 4.95827 61.4916 4.2293 59.856 3.58959C54.4546 1.46798 48.5921 0.373206 42.6619 0.378867H41.2056C34.2073 0.383222 27.3209 1.90606 21.1743 4.80847L16.9434 6.8099C11.991 6.85823 7.13393 8.00047 2.83127 10.1273C1.08269 10.9969 0.00301306 12.6104 0 14.3579V20.7127C0 21.3041 0.552395 21.7831 1.23435 21.7831H5.37831C6.72616 25.1175 10.9359 26.8733 14.7811 25.7045C16.8978 25.0613 18.5615 23.6182 19.3032 21.7831H52.2761C53.624 25.1175 57.8337 26.8733 61.6789 25.7045C63.7951 25.0613 65.4593 23.6182 66.201 21.7831H66.6439C66.8011 21.7831 66.9568 21.7574 67.1029 21.7069L71.1002 20.316C72.886 19.7029 74.0555 18.204 74.049 16.5392V7.87027C74.049 7.33812 73.5975 6.88654 72.9899 6.81077ZM17.178 20.4989C16.6321 22.8152 14.0243 24.3093 11.3532 23.8359C8.68163 23.3626 6.95867 21.1012 7.50453 18.7845C8.0509 16.4682 10.6587 14.9741 13.3298 15.4475C15.6282 15.8546 17.2784 17.6083 17.2779 19.6428C17.2779 19.9302 17.2443 20.2172 17.178 20.4989ZM39.4927 19.6428H19.7461C19.7461 16.0963 16.4312 13.2213 12.3415 13.2213C8.25177 13.2213 4.9364 16.0963 4.9364 19.6428H2.4682V14.3579C2.46971 13.3777 3.07533 12.4723 4.05659 11.9855C8.08404 9.99144 12.6408 8.94196 17.2779 8.94065H39.4927V19.6428ZM39.4927 6.80031H22.1184L22.3564 6.68753C27.6328 4.20099 33.4937 2.79137 39.4927 2.56624V6.80031ZM41.9609 2.5192H42.6594C47.633 2.51441 52.5614 3.3331 57.1809 4.93171L55.026 6.80031H41.9609V2.5192ZM64.0758 20.4989C63.5299 22.8152 60.9221 24.3093 58.2505 23.8359C55.5794 23.3626 53.8565 21.1012 54.4023 18.7845C54.9482 16.4682 57.5565 14.9741 60.2276 15.4475C62.5261 15.8546 64.1762 17.6083 64.1757 19.6428C64.1757 19.9302 64.1421 20.2172 64.0758 20.4989ZM71.5808 10.0106H67.8783V12.1514H71.5808V16.5392C71.5838 17.3278 71.0294 18.0376 70.1837 18.3272L66.6439 19.56C66.6439 19.4616 66.6293 19.3641 66.6218 19.2657C66.6143 19.1672 66.6118 19.0518 66.5997 18.9447C66.5872 18.8376 66.5625 18.7305 66.543 18.6238C66.5229 18.5166 66.5083 18.4095 66.4837 18.3124C66.4591 18.2149 66.4229 18.1069 66.3908 18.005C66.3587 17.9035 66.3341 17.8007 66.2969 17.701C66.2602 17.6017 66.2155 17.5064 66.1739 17.4088C66.1317 17.3117 66.0935 17.2111 66.0503 17.1144C66.0071 17.0182 65.9489 16.9307 65.8972 16.8397C65.8454 16.7486 65.7947 16.6489 65.737 16.557C65.6787 16.4651 65.6134 16.3868 65.5577 16.3014C65.5024 16.2156 65.4347 16.1181 65.3644 16.0305C65.2935 15.9426 65.2283 15.8733 65.1605 15.7941C65.0927 15.7148 65.0158 15.6216 64.937 15.5393C64.8582 15.457 64.7843 15.3926 64.7075 15.3251C64.6312 15.258 64.5458 15.167 64.4609 15.0921C64.3756 15.0172 64.2917 14.958 64.2068 14.8918C64.1215 14.8256 64.0301 14.7472 63.9362 14.6775C63.8428 14.6083 63.7473 14.5547 63.6539 14.4938C63.56 14.4328 63.4661 14.3675 63.3677 14.3104C63.2688 14.2538 63.1578 14.2037 63.0518 14.1437C62.9454 14.0836 62.859 14.0365 62.7591 13.9908C62.6591 13.9446 62.5346 13.8963 62.4211 13.8493C62.3076 13.8022 62.2187 13.7604 62.1138 13.7221C62.0088 13.6834 61.8667 13.6429 61.7437 13.6045C61.6201 13.5658 61.5398 13.5357 61.4348 13.507C61.2942 13.4695 61.1501 13.4425 61.0065 13.4116C60.9126 13.3925 60.8227 13.3668 60.7278 13.3498C60.5761 13.3228 60.4204 13.308 60.2663 13.2884C60.1749 13.2779 60.0875 13.2605 59.9961 13.2531C59.749 13.2318 59.5024 13.22 59.2433 13.22C55.1551 13.2235 51.8422 16.0963 51.8382 19.6415H41.9614V8.94022H55.5368C55.8642 8.94022 56.178 8.82743 56.409 8.62668L59.6094 5.85142C60.9527 6.40578 62.2589 7.02545 63.5219 7.7074C63.6675 7.78622 63.8302 7.83804 64.0004 7.85938L71.5808 8.79782V10.0106Z" fill="#302009"/>
</svg>
