<svg width="49" height="45" viewBox="0 0 49 45" fill="none" xmlns="http://www.w3.org/2000/svg">
<path d="M28.3054 13.9228C27.7803 13.9228 27.3545 14.3084 27.3545 14.7834C27.3545 15.2581 27.7803 15.6437 28.3054 15.6437C28.8304 15.6437 29.2563 15.2581 29.2563 14.7834C29.2563 14.3084 28.8304 13.9228 28.3054 13.9228Z" fill="#302009"/>
<path d="M22.5382 30.7256C22.9094 30.3893 22.9094 29.845 22.5382 29.5087C22.1666 29.1734 21.5646 29.1734 21.1927 29.5087C20.8218 29.845 20.8218 30.3893 21.1927 30.7256C21.5646 31.0609 22.1666 31.0609 22.5382 30.7256Z" fill="#302009"/>
<path d="M11.1095 44.6443C11.4781 44.9804 12.0782 44.9841 12.4517 44.6514L17.0624 40.5433C17.8457 39.8348 18.0839 38.786 17.7394 37.8742L18.7312 37.0092C19.2652 36.5427 19.9682 36.2856 20.7114 36.2856H33.354C35.5969 36.2856 37.7168 35.5066 39.3239 34.0921C39.3901 34.0339 38.8219 34.6392 47.9489 24.7735C49.3026 23.3251 49.1001 21.15 47.497 19.9244C45.904 18.7101 43.5177 18.8846 42.1603 20.3082L36.5485 25.5246C35.8399 24.7359 34.7593 24.2442 33.5918 24.2442H22.987C21.478 23.6732 19.8768 23.3842 18.2247 23.3842C13.6467 23.3842 9.6473 25.2958 7.50063 28.8837C6.59656 28.7287 5.64306 28.9761 4.9571 29.5965L0.433003 33.7002C0.0636427 34.0353 0.0628996 34.5774 0.431516 34.9131L11.1095 44.6443ZM18.2243 25.1042C19.681 25.1042 21.0893 25.3694 22.411 25.8923C22.5314 25.94 22.6611 25.9646 22.7923 25.9646H33.5918C34.6229 25.9646 35.4939 26.7251 35.4939 27.6846C35.4939 28.6333 34.6408 29.4049 33.5918 29.4049H25.8326C25.3076 29.4049 24.8817 29.79 24.8817 30.2649C24.8817 30.7401 25.3076 31.1249 25.8326 31.1249H33.5918C35.6894 31.1249 37.3957 29.5817 37.3957 27.6846C37.3957 27.5333 37.3838 27.3834 37.3623 27.2349C42.7908 22.1881 43.5563 21.479 43.589 21.4437C44.2668 20.7202 45.47 20.6284 46.2704 21.2387C47.0716 21.8514 47.173 22.9389 46.4934 23.6665L37.9635 32.8889C36.718 33.9704 35.0826 34.5656 33.354 34.5656H20.7114C19.4725 34.5656 18.2998 34.9941 17.4102 35.7714L16.602 36.4768L9.1516 29.739C10.8929 26.7846 14.1603 25.1042 18.2243 25.1042ZM6.303 30.812C6.61662 30.5284 7.0982 30.4773 7.48057 30.691C7.62586 30.771 15.7599 38.1458 15.8101 38.2066C16.0884 38.5457 16.0487 39.0273 15.7228 39.3223L11.7921 42.8245L2.44776 34.3088L6.303 30.812Z" fill="#302009"/>
<path d="M14.991 19.0836H37.8151C39.3885 19.0836 40.6682 17.9261 40.6682 16.5032C40.6682 14.3352 40.6682 4.98875 40.6682 3.42972C40.6682 2.00679 39.3885 0.849365 37.8151 0.849365H14.991C13.4177 0.849365 12.1379 2.00679 12.1379 3.42972V16.5032C12.1379 17.9261 13.4177 19.0836 14.991 19.0836ZM38.766 7.73008H14.0401V6.01007H38.766V7.73008ZM37.8151 17.3635H14.991C14.4667 17.3635 14.0401 16.9774 14.0401 16.5032V9.45042H38.766V16.5032C38.766 16.9774 38.3395 17.3635 37.8151 17.3635ZM14.991 2.56971H37.8151C38.3395 2.56971 38.766 2.95552 38.766 3.42972V4.28972H14.0401V3.42972C14.0401 2.95552 14.4667 2.56971 14.991 2.56971Z" fill="#302009"/>
<path d="M35.9131 13.9228H32.1091C31.584 13.9228 31.1582 14.308 31.1582 14.7834C31.1582 15.2584 31.584 15.6437 32.1091 15.6437H35.9131C36.4385 15.6437 36.8643 15.2584 36.8643 14.7834C36.8643 14.308 36.4385 13.9228 35.9131 13.9228Z" fill="#302009"/>
</svg>
