<svg width="77" height="54" viewBox="0 0 77 54" fill="none" xmlns="http://www.w3.org/2000/svg">
<path d="M49.2493 47.6427H7.14119C4.44491 47.6427 2.25127 45.6685 2.25127 43.2419V12.9237C2.25127 10.4971 4.44491 8.52291 7.14119 8.52291C7.76284 8.52291 8.26682 8.06932 8.26682 7.50984C8.26682 6.95022 7.76284 6.49677 7.14119 6.49677C3.20356 6.49677 0 9.37983 0 12.9237V43.2419C0 46.7857 3.20356 49.6688 7.14119 49.6688H49.2493C49.8709 49.6688 50.3749 49.2153 50.3749 48.6557C50.3749 48.0964 49.8709 47.6427 49.2493 47.6427Z" fill="#C5AC2D"/>
<path d="M69.7024 6.49677H32.4062C31.7845 6.49677 31.2805 6.95022 31.2805 7.50984C31.2805 8.06932 31.7845 8.52291 32.4062 8.52291H69.7024C72.3987 8.52291 74.5923 10.4971 74.5923 12.9237V43.2419C74.5923 45.6685 72.3987 47.6427 69.7024 47.6427H68.4993C67.8777 47.6427 67.3737 48.0962 67.3737 48.6557C67.3737 49.2153 67.8777 49.6688 68.4993 49.6688H69.7024C73.64 49.6688 76.8436 46.7857 76.8436 43.2419V12.9237C76.8436 9.37983 73.64 6.49677 69.7024 6.49677Z" fill="#C5AC2D"/>
<path d="M11.9533 8.52291C15.3129 8.52291 18.0463 10.9828 18.0463 14.0066C18.0463 14.5661 18.5502 15.0197 19.1719 15.0197C19.7936 15.0197 20.2975 14.5661 20.2975 14.0066C20.2975 10.9829 23.0309 8.52291 26.3905 8.52291C27.0122 8.52291 27.5162 8.06932 27.5162 7.50984C27.5162 6.95022 27.0122 6.49677 26.3905 6.49677C23.0309 6.49677 20.2975 4.03676 20.2975 1.01307C20.2975 0.453586 19.7936 0 19.1719 0C18.5502 0 18.0463 0.453586 18.0463 1.01307C18.0463 4.03676 15.3131 6.49677 11.9533 6.49677C11.3316 6.49677 10.8276 6.95022 10.8276 7.50984C10.8276 8.06932 11.3316 8.52291 11.9533 8.52291ZM19.1719 4.77697C19.9027 5.90783 20.9519 6.85215 22.2084 7.50984C20.9519 8.16739 19.9027 9.11184 19.1719 10.2426C18.4411 9.11184 17.3919 8.16739 16.1355 7.50984C17.3917 6.85215 18.4411 5.90783 19.1719 4.77697Z" fill="#C5AC2D"/>
<path d="M63.6867 47.6426C61.6538 47.6426 60 46.1541 60 44.3246C60 43.7651 59.496 43.3115 58.8744 43.3115C58.2527 43.3115 57.7488 43.7651 57.7488 44.3246C57.7488 46.1542 56.0948 47.6426 54.0619 47.6426C53.4403 47.6426 52.9363 48.0962 52.9363 48.6557C52.9363 49.2153 53.4403 49.6688 54.0619 49.6688C56.0948 49.6688 57.7488 51.1573 57.7488 52.9869C57.7488 53.5464 58.2527 54 58.8744 54C59.496 54 60 53.5464 60 52.9869C60 51.1573 61.654 49.6688 63.6867 49.6688C64.3084 49.6688 64.8123 49.2153 64.8123 48.6557C64.8123 48.0964 64.3084 47.6426 63.6867 47.6426ZM58.8742 49.8594C58.5023 49.3971 58.0504 48.9904 57.5368 48.6557C58.0503 48.321 58.5023 47.9143 58.8742 47.4522C59.2461 47.9143 59.6981 48.3211 60.2116 48.6557C59.6981 48.9904 59.2461 49.3973 58.8742 49.8594Z" fill="#C5AC2D"/>
<path d="M17.0028 18.4074C16.3812 18.4074 15.8772 18.861 15.8772 19.4205V36.7305C15.8772 37.2239 16.2722 37.6455 16.8125 37.729C16.8907 37.741 17.0039 37.7586 19.0919 37.7586C20.1052 37.7586 21.5843 37.7544 23.7499 37.7436C24.3715 37.7405 24.8727 37.2843 24.8692 36.7248C24.8658 36.1672 24.3625 35.7174 23.7437 35.7174C23.7416 35.7174 23.7394 35.7174 23.7373 35.7174C22.0304 35.7259 19.5309 35.7346 18.1286 35.7315V19.4205C18.1285 18.861 17.6245 18.4074 17.0028 18.4074Z" fill="#C5AC2D"/>
<path d="M47.7535 37.5732C47.9506 37.6982 48.1768 37.7583 48.4009 37.7583C48.7546 37.7583 49.1028 37.6086 49.3221 37.3286L55.6632 29.2274L61.9949 37.3279C62.2141 37.6084 62.5626 37.7583 62.9166 37.7583C63.1404 37.7583 63.3664 37.6983 63.5633 37.5736C64.0718 37.2518 64.194 36.6197 63.8363 36.1622L57.0405 27.4679L62.883 20.0039C63.2409 19.5465 63.1192 18.9145 62.611 18.5922C62.1029 18.2699 61.4006 18.3796 61.0425 18.8369L55.6645 25.7075L50.2946 18.8375C49.9368 18.3797 49.2347 18.2699 48.7262 18.5918C48.2178 18.9137 48.0956 19.5457 48.4532 20.0032L54.2872 27.467L47.4816 36.1616C47.1236 36.6191 47.2454 37.2511 47.7535 37.5732Z" fill="#C5AC2D"/>
<path d="M31.688 36.6855C32.9226 37.3955 34.3198 37.7563 35.8407 37.7582H35.8533C37.1748 37.7582 38.4112 37.5014 39.5285 36.9951C42.307 35.7357 43.7756 33.7765 43.7756 31.3292V19.4205C43.7756 18.861 43.2716 18.4074 42.6499 18.4074C42.0283 18.4074 41.5243 18.861 41.5243 19.4205V31.3292C41.5243 33.0064 40.5402 34.2679 38.5159 35.1855C37.7154 35.5483 36.8197 35.7321 35.853 35.732C35.8499 35.732 35.8467 35.732 35.8436 35.732C34.758 35.7307 33.7676 35.477 32.9 34.978C31.1474 33.9703 30.3997 32.8827 30.3997 31.3416V19.4205C30.3997 18.861 29.8957 18.4074 29.2741 18.4074C28.6524 18.4074 28.1484 18.861 28.1484 19.4205V31.3416C28.1486 33.5681 29.3063 35.316 31.688 36.6855Z" fill="#C5AC2D"/>
</svg>
