<svg width="63" height="38" viewBox="0 0 63 38" fill="none" xmlns="http://www.w3.org/2000/svg">
<path d="M6.86843 18.3482L4.87819 15.9441C4.1116 15.037 3.73032 13.9104 3.8039 12.7698C3.98312 10.2809 6.23244 8.33103 8.92483 8.33103C11.6172 8.33103 13.8662 10.2809 14.0457 12.7692C14.0847 13.3342 14.0071 13.9008 13.817 14.44L26.2633 14.6469L24.3424 12.3255C23.1165 10.8764 22.5062 9.07625 22.623 7.25334C22.7551 5.38865 23.6297 3.63084 25.0843 2.30661C25.8337 1.62689 26.7236 1.08767 27.7031 0.719784C28.6825 0.351893 29.7324 0.162537 30.7926 0.162537C31.8529 0.162537 32.9027 0.351893 33.8822 0.719784C34.8617 1.08767 35.7515 1.62689 36.501 2.30661C37.9553 3.63052 38.8299 5.3879 38.9622 7.25221C39.0905 8.99052 38.482 10.7895 37.2435 12.3243L35.5819 14.3314L53.2685 14.4371C53.4251 14.438 53.5774 14.483 53.7045 14.5659C53.8315 14.6488 53.927 14.7655 53.9776 14.8997L62.2705 36.8713C62.3093 36.9743 62.3205 37.0841 62.303 37.1918C62.2856 37.2994 62.2401 37.4018 62.1703 37.4903C62.1005 37.5788 62.0084 37.6509 61.9016 37.7007C61.7949 37.7505 61.6765 37.7764 61.5565 37.7764H1.18898C1.07061 37.7764 0.953899 37.7512 0.848282 37.7027C0.742664 37.6543 0.651104 37.584 0.581001 37.4975C0.510899 37.4111 0.464218 37.3109 0.444736 37.2051C0.425251 37.0993 0.43351 36.9908 0.468845 36.8884L6.86843 18.3482ZM12.5405 12.8589C12.4287 11.3056 11.046 9.69879 8.92546 9.69879C6.80492 9.69879 5.42238 11.3059 5.31045 12.8607C5.26098 13.6745 5.53604 14.4773 6.08542 15.1225L8.92546 18.5533L11.7601 15.1294C12.3054 14.4786 12.5813 13.6751 12.5398 12.8589H12.5405ZM13.0864 15.7954C13.0487 15.8451 13.011 15.8945 12.972 15.9435L9.52837 20.1038C9.45809 20.1887 9.36695 20.2577 9.26217 20.3052C9.15739 20.3526 9.04185 20.3774 8.9247 20.3774C8.80755 20.3774 8.69201 20.3526 8.58723 20.3052C8.48246 20.2577 8.39132 20.1887 8.32103 20.1038L7.9841 19.6969L7.12626 22.1825L18.8262 22.1849L19.674 15.9056L13.0864 15.7954ZM36.0302 11.5107C37.0542 10.2418 37.5605 8.76187 37.4558 7.34282C37.3474 5.80874 36.6282 4.36247 35.4318 3.27282C34.8226 2.72052 34.0993 2.2824 33.3032 1.9835C32.5071 1.68459 31.6538 1.53074 30.7921 1.53074C29.9304 1.53074 29.0772 1.68459 28.2811 1.9835C27.485 2.2824 26.7617 2.72052 26.1525 3.27282C24.9554 4.36294 24.2359 5.80993 24.1276 7.34476C24.0354 8.84076 24.5397 10.317 25.5485 11.504L30.7921 17.838L36.0302 11.5107ZM60.5008 36.4087L56.5807 26.0222L52.1175 26.0099L48.0294 30.9482C47.9591 31.0332 47.868 31.1021 47.7632 31.1496C47.6584 31.1971 47.5429 31.2218 47.4257 31.2218C47.3086 31.2218 47.193 31.1971 47.0882 31.1496C46.9835 31.1021 46.8923 31.0332 46.822 30.9482L43.5647 27.0129L43.5246 36.4087H60.5008ZM43.8205 25.0433L47.4258 29.3982L51.0256 25.05C51.7333 24.1723 52.0836 23.1523 52.0114 22.1755C51.8698 20.2071 50.1157 18.171 47.4258 18.171C44.736 18.171 42.9819 20.2071 42.84 22.1774C42.777 23.2084 43.125 24.2255 43.8205 25.0433ZM31.9275 29.2393C31.9987 29.303 32.0553 29.3788 32.0939 29.4625C32.1325 29.5461 32.1524 29.6359 32.1524 29.7266L32.1483 36.4087H42.0154L42.0628 25.0803C41.5154 24.1639 41.2627 23.1266 41.3334 22.0865C41.5465 19.124 44.2223 16.8033 47.425 16.8033C50.6276 16.8033 53.3032 19.124 53.5164 22.0854C53.5738 22.9629 53.3995 23.8402 53.0082 24.6445L56.063 24.653L52.7223 15.8016L34.4537 15.693L31.3949 19.388C31.3246 19.4729 31.2334 19.5419 31.1287 19.5894C31.0239 19.6368 30.9083 19.6616 30.7912 19.6616C30.674 19.6616 30.5585 19.6368 30.4537 19.5894C30.3489 19.5419 30.2578 19.4729 30.1875 19.388L27.4111 16.0335L21.1909 15.9301L20.2431 22.9513C20.2207 23.117 20.1322 23.2696 19.9942 23.3803C19.8562 23.491 19.6783 23.5521 19.494 23.552L6.65413 23.5494L4.76073 29.0349L20.0897 29.0585C19.9556 28.5885 19.9052 28.1021 19.9405 27.6176C20.1196 25.1285 22.369 23.1788 25.0614 23.1788C27.7538 23.1788 30.0033 25.1285 30.1824 27.6165C30.2165 28.1025 30.1637 28.5902 30.0259 29.0609L31.3864 29.0426C31.4867 29.0401 31.5864 29.0563 31.6794 29.0902C31.7725 29.124 31.8569 29.1748 31.9275 29.2393ZM22.2215 29.9703L25.0616 33.4011L27.8961 29.9772C28.4416 29.3266 28.7178 28.5231 28.6766 27.7069C28.5648 26.1534 27.182 24.5468 25.0616 24.5468C22.9412 24.5468 21.5584 26.1539 21.4464 27.7088C21.3972 28.5225 21.6723 29.3251 22.2215 29.9704V29.9703ZM30.6391 36.4087L30.6428 30.4205L29.3709 30.4376C29.2892 30.5576 29.2018 30.6754 29.1088 30.7909L25.6652 34.9512C25.595 35.0361 25.5038 35.1051 25.399 35.1526C25.2943 35.2 25.1787 35.2248 25.0616 35.2248C24.9444 35.2248 24.8289 35.2 24.7241 35.1526C24.6193 35.1051 24.5282 35.0361 24.4579 34.9512L21.0148 30.7922C20.9165 30.6736 20.8245 30.5521 20.739 30.4274L4.28885 30.4021L2.21573 36.4087H30.6391Z" fill="#302009"/>
<path d="M25.8264 7.62488C25.8239 6.70622 26.1222 5.80754 26.6835 5.04259C27.2448 4.27764 28.0439 3.68083 28.9797 3.32769C29.9155 2.97456 30.9458 2.88099 31.9403 3.05882C32.9348 3.23666 33.8487 3.6779 34.5663 4.3267C35.284 4.9755 35.7731 5.80268 35.9717 6.70352C36.1704 7.60437 36.0696 8.53837 35.6823 9.3873C35.2949 10.2362 34.6383 10.9619 33.7956 11.4725C32.9529 11.9831 31.962 12.2556 30.9484 12.2555C29.5921 12.2556 28.2911 11.7681 27.3309 10.9C26.3707 10.0319 25.8296 8.85406 25.8264 7.62488ZM30.9484 10.8877C31.6599 10.8855 32.3547 10.6922 32.9451 10.3324C33.5354 9.97247 33.9949 9.46212 34.2655 8.86574C34.5361 8.26936 34.6056 7.6137 34.4653 6.98154C34.3249 6.34939 33.9811 5.76909 33.4771 5.31392C32.9731 4.85875 32.3316 4.54912 31.6336 4.42413C30.9356 4.29915 30.2124 4.36441 29.5553 4.61167C28.8981 4.85894 28.3366 5.27712 27.9416 5.81341C27.5465 6.3497 27.3357 6.98006 27.3356 7.62488C27.3384 8.49143 27.7203 9.32161 28.3976 9.9333C29.0749 10.545 29.9922 10.8882 30.9484 10.8877Z" fill="#302009"/>
<path d="M47.6012 19.095C48.3003 19.0965 48.9833 19.2857 49.5638 19.6388C50.1444 19.9919 50.5964 20.4931 50.8628 21.0789C51.1292 21.6648 51.1981 22.309 51.0607 22.9303C50.9232 23.5516 50.5857 24.122 50.0908 24.5695C49.5958 25.0171 48.9656 25.3216 48.2797 25.4446C47.5939 25.5677 46.8832 25.5038 46.2374 25.2609C45.5916 25.0181 45.0398 24.6072 44.6515 24.0803C44.2633 23.5533 44.0561 22.9339 44.0561 22.3002C44.0583 21.4494 44.4327 20.6341 45.0973 20.0332C45.7619 19.4323 46.6624 19.0949 47.6012 19.095ZM47.6012 24.1378C48.0018 24.1363 48.393 24.0273 48.7254 23.8245C49.0577 23.6216 49.3163 23.3341 49.4685 22.9982C49.6207 22.6623 49.6596 22.2931 49.5805 21.9371C49.5013 21.5812 49.3075 21.2544 49.0237 20.9982C48.7398 20.742 48.3785 20.5677 47.9854 20.4974C47.5923 20.4271 47.185 20.4639 46.815 20.6032C46.445 20.7425 46.1288 20.9781 45.9064 21.2801C45.684 21.5821 45.5653 21.9371 45.5653 22.3002C45.5669 22.7885 45.7821 23.2562 46.1638 23.6008C46.5455 23.9454 47.0624 24.1387 47.6012 24.1383V24.1378Z" fill="#302009"/>
<path d="M25.2053 25.0542C25.8045 25.0554 26.3898 25.2176 26.8874 25.5201C27.3849 25.8227 27.7724 26.2521 28.0007 26.7542C28.2291 27.2562 28.2881 27.8083 28.1704 28.3407C28.0527 28.8732 27.7635 29.3621 27.3393 29.7456C26.9152 30.1291 26.3751 30.3901 25.7874 30.4956C25.1996 30.6011 24.5905 30.5464 24.0371 30.3383C23.4837 30.1302 23.0107 29.7781 22.6779 29.3265C22.3452 28.8749 22.1676 28.3441 22.1676 27.8011C22.1694 27.072 22.4902 26.3733 23.0597 25.8584C23.6292 25.3434 24.4009 25.0542 25.2053 25.0542ZM25.2053 29.1802C25.506 29.179 25.7996 29.0971 26.0489 28.9448C26.2983 28.7925 26.4923 28.5767 26.6064 28.3246C26.7205 28.0725 26.7497 27.7954 26.6902 27.5283C26.6308 27.2612 26.4853 27.016 26.2722 26.8237C26.0591 26.6315 25.7879 26.5007 25.4929 26.448C25.1979 26.3953 24.8923 26.423 24.6146 26.5275C24.337 26.6321 24.0997 26.8089 23.9328 27.0355C23.7659 27.2622 23.6768 27.5286 23.6768 27.8011C23.6782 28.1675 23.8399 28.5185 24.1265 28.777C24.413 29.0355 24.801 29.1805 25.2053 29.1801V29.1802Z" fill="#302009"/>
<path d="M9.06822 15.7002C8.46905 15.699 7.88371 15.5368 7.38617 15.2343C6.88863 14.9317 6.5012 14.5022 6.27284 14.0002C6.04448 13.4981 5.98542 12.946 6.10314 12.4135C6.22085 11.8811 6.51006 11.3922 6.93421 11.0086C7.35837 10.6251 7.89844 10.3641 8.4862 10.2586C9.07396 10.1531 9.68303 10.2078 10.2365 10.4159C10.7899 10.624 11.2629 10.9761 11.5956 11.4277C11.9284 11.8793 12.106 12.4102 12.106 12.9532C12.1042 13.6823 11.7833 14.381 11.2138 14.896C10.6443 15.411 9.8727 15.7002 9.06822 15.7002ZM9.06822 11.574C8.76754 11.5752 8.47399 11.6572 8.22464 11.8094C7.97528 11.9617 7.78129 12.1776 7.66715 12.4297C7.55301 12.6818 7.52384 12.9589 7.58333 13.226C7.64281 13.4932 7.78828 13.7383 8.00137 13.9306C8.21446 14.1229 8.48562 14.2536 8.78062 14.3063C9.07563 14.3591 9.38126 14.3314 9.65893 14.2268C9.9366 14.1223 10.1739 13.9455 10.3408 13.7188C10.5077 13.4921 10.5968 13.2257 10.5968 12.9532C10.5954 12.5867 10.4337 12.2357 10.1472 11.9772C9.86059 11.7186 9.47258 11.5736 9.06822 11.574Z" fill="#302009"/>
</svg>
