<svg width="25" height="25" viewBox="0 0 25 25" fill="none" xmlns="http://www.w3.org/2000/svg">
<path d="M12.5 25C5.60708 25 0 19.3924 0 12.5C0 5.60762 5.60708 0 12.5 0C19.3929 0 25 5.60762 25 12.5C25 19.3924 19.3929 25 12.5 25ZM12.5 1.04165C6.18184 1.04165 1.04165 6.18184 1.04165 12.5C1.04165 18.8182 6.18184 23.9583 12.5 23.9583C18.8182 23.9583 23.9583 18.8182 23.9583 12.5C23.9583 6.18184 18.8182 1.04165 12.5 1.04165Z" fill="#FEFEFE"/>
<path d="M17.4693 12.938L10.1776 17.6255C10.0179 17.7297 9.81143 17.7354 9.64663 17.6448C9.47876 17.5533 9.375 17.3783 9.375 17.1875V7.81255C9.375 7.62183 9.47876 7.44683 9.64663 7.35527C9.72393 7.31304 9.8104 7.2917 9.89585 7.2917C9.99351 7.2917 10.0922 7.31919 10.1776 7.37461L17.4693 12.0621C17.6178 12.1577 17.7083 12.323 17.7083 12.5C17.7083 12.677 17.6178 12.8423 17.4693 12.938ZM10.4167 8.76675V16.2333L16.2242 12.5L10.4167 8.76675Z" fill="#FEFEFE"/>
</svg>
