<svg width="30" height="30" viewBox="0 0 30 30" fill="none" xmlns="http://www.w3.org/2000/svg">
<path d="M17.8422 14.6666C17.8422 16.2171 16.5568 17.4739 14.9711 17.4739C13.3854 17.4739 12.1 16.2171 12.1 14.6666C12.1 13.1162 13.3854 11.8594 14.9711 11.8594C16.5568 11.8594 17.8422 13.1162 17.8422 14.6666Z" fill="#C5AC2D"/>
<path d="M21.7145 9.72789C21.5764 9.36221 21.3563 9.03123 21.0702 8.75954C20.7923 8.4798 20.454 8.26452 20.0798 8.12957C19.7763 8.01432 19.3203 7.87713 18.4806 7.83976C17.5721 7.79926 17.2998 7.79053 15 7.79053C12.6999 7.79053 12.4276 7.79903 11.5193 7.83954C10.6796 7.87713 10.2234 8.01432 9.92014 8.12957C9.54592 8.26452 9.2074 8.4798 8.92977 8.75954C8.64366 9.03123 8.42348 9.36199 8.28523 9.72789C8.16736 10.0246 8.02705 10.4707 7.98883 11.2917C7.9474 12.1797 7.93848 12.4461 7.93848 14.6949C7.93848 16.9436 7.9474 17.2099 7.98883 18.0981C8.02705 18.9192 8.16736 19.365 8.28523 19.6618C8.42348 20.0277 8.64343 20.3584 8.92954 20.6301C9.2074 20.9098 9.54569 21.1251 9.91991 21.2601C10.2234 21.3756 10.6796 21.5127 11.5193 21.5501C12.4276 21.5906 12.6997 21.5991 14.9997 21.5991C17.3 21.5991 17.5724 21.5906 18.4804 21.5501C19.3201 21.5127 19.7763 21.3756 20.0798 21.2601C20.831 20.9768 21.4247 20.3962 21.7145 19.6618C21.8323 19.365 21.9726 18.9192 22.0111 18.0981C22.0525 17.2099 22.0612 16.9436 22.0612 14.6949C22.0612 12.4461 22.0525 12.1797 22.0111 11.2917C21.9729 10.4707 21.8326 10.0246 21.7145 9.72789ZM15 19.0193C12.5571 19.0193 10.5768 17.0832 10.5768 14.6947C10.5768 12.3062 12.5571 10.3702 15 10.3702C17.4426 10.3702 19.4229 12.3062 19.4229 14.6947C19.4229 17.0832 17.4426 19.0193 15 19.0193ZM19.5978 11.2098C19.0269 11.2098 18.5641 10.7573 18.5641 10.1992C18.5641 9.64106 19.0269 9.18855 19.5978 9.18855C20.1686 9.18855 20.6314 9.64106 20.6314 10.1992C20.6312 10.7573 20.1686 11.2098 19.5978 11.2098Z" fill="#C5AC2D"/>
<path d="M15 0.0288086C6.717 0.0288086 0 6.59625 0 14.6948C0 22.7934 6.717 29.3608 15 29.3608C23.283 29.3608 30 22.7934 30 14.6948C30 6.59625 23.283 0.0288086 15 0.0288086ZM23.5613 18.1669C23.5197 19.0633 23.3739 19.6754 23.161 20.2111C22.7135 21.3424 21.7989 22.2366 20.6419 22.6741C20.0942 22.8822 19.468 23.0246 18.5513 23.0655C17.6328 23.1065 17.3394 23.1163 15.0002 23.1163C12.6608 23.1163 12.3676 23.1065 11.4489 23.0655C10.5322 23.0246 9.90601 22.8822 9.35829 22.6741C8.78334 22.4626 8.26286 22.1312 7.83257 21.7027C7.39449 21.2822 7.05551 20.7731 6.83922 20.2111C6.62636 19.6756 6.48056 19.0633 6.4389 18.1671C6.39656 17.2688 6.38672 16.9819 6.38672 14.6948C6.38672 12.4077 6.39656 12.1208 6.43867 11.2228C6.48033 10.3263 6.6259 9.71425 6.83876 9.17851C7.05505 8.61658 7.39426 8.10747 7.83257 7.68698C8.26263 7.25843 8.78334 6.927 9.35806 6.71552C9.90601 6.5074 10.532 6.36508 11.4489 6.32412C12.3674 6.28317 12.6608 6.27332 15 6.27332C17.3392 6.27332 17.6326 6.28317 18.5511 6.32435C19.468 6.36508 20.094 6.5074 20.6419 6.7153C21.2167 6.92678 21.7374 7.25843 22.1677 7.68698C22.6057 8.10769 22.9449 8.61658 23.161 9.17851C23.3741 9.71425 23.5197 10.3263 23.5616 11.2228C23.6034 12.1208 23.6133 12.4077 23.6133 14.6948C23.6133 16.9819 23.6034 17.2688 23.5613 18.1669Z" fill="#C5AC2D"/>
</svg>
