<svg width="30" height="30" viewBox="0 0 30 30" fill="none" xmlns="http://www.w3.org/2000/svg">
<path d="M30 14.6948C30 6.59414 23.2852 0.0288086 15 0.0288086C6.71484 0.0288086 0 6.59414 0 14.6948C0 22.7955 6.71484 29.3608 15 29.3608C15.0879 29.3608 15.1758 29.3608 15.2637 29.3551V17.9431H12.041V14.2709H15.2637V11.5668C15.2637 8.43312 17.2207 6.72591 20.0801 6.72591C21.4512 6.72591 22.6289 6.8233 22.9688 6.86913V10.1461H21C19.4473 10.1461 19.1426 10.8679 19.1426 11.9278V14.2652H22.8633L22.377 17.9374H19.1426V28.7937C25.4121 27.0349 30 21.3919 30 14.6948Z" fill="#C5AC2D"/>
</svg>
