<svg width="30" height="30" viewBox="0 0 30 30" fill="none" xmlns="http://www.w3.org/2000/svg">
<path d="M13.1316 17.4424L18.0109 14.6948L13.1316 11.9473V17.4424Z" fill="#C5AC2D"/>
<path d="M15 0.0288086C6.717 0.0288086 0 6.59625 0 14.6948C0 22.7934 6.717 29.3608 15 29.3608C23.283 29.3608 30 22.7934 30 14.6948C30 6.59625 23.283 0.0288086 15 0.0288086ZM24.3727 14.7098C24.3727 14.7098 24.3727 17.6842 23.9868 19.1184C23.7705 19.9034 23.1374 20.5224 22.3345 20.7337C20.8676 21.1112 15 21.1112 15 21.1112C15 21.1112 9.14772 21.1112 7.66548 20.7187C6.86256 20.5074 6.22948 19.8882 6.01318 19.1032C5.62706 17.6842 5.62706 14.6948 5.62706 14.6948C5.62706 14.6948 5.62706 11.7207 6.01318 10.2865C6.22925 9.50143 6.8779 8.86722 7.66548 8.65597C9.13239 8.27844 15 8.27844 15 8.27844C15 8.27844 20.8676 8.27844 22.3345 8.67096C23.1374 8.88222 23.7705 9.50143 23.9868 10.2865C24.3883 11.7207 24.3727 14.7098 24.3727 14.7098Z" fill="#C5AC2D"/>
</svg>
